<svg width="20" height="20" viewBox="0 0 20 20" fill="none" xmlns="http://www.w3.org/2000/svg">
<path d="M19.1226 7.41927C19.065 7.24946 18.9589 7.10025 18.8174 6.99006C18.6759 6.87987 18.5052 6.81353 18.3265 6.79922L13.0973 6.38371L10.8345 1.3747C10.7624 1.21337 10.6452 1.07634 10.497 0.980156C10.3488 0.883971 10.1759 0.832739 9.9992 0.832642C9.82251 0.832545 9.64956 0.883587 9.50124 0.979609C9.35291 1.07563 9.23554 1.21253 9.1633 1.37378L6.90049 6.38371L1.67133 6.79922C1.49564 6.81314 1.32768 6.87738 1.18754 6.98425C1.04741 7.09113 0.941027 7.23612 0.881131 7.40187C0.821236 7.56762 0.810362 7.74712 0.849809 7.91889C0.889257 8.09066 0.977356 8.24743 1.10357 8.37044L4.96787 12.1375L3.6012 18.0555C3.5597 18.2347 3.573 18.4221 3.63937 18.5936C3.70574 18.7651 3.82212 18.9127 3.97341 19.0172C4.1247 19.1217 4.30391 19.1783 4.48778 19.1797C4.67165 19.1811 4.8517 19.1272 5.00456 19.025L9.9989 15.6955L14.9932 19.025C15.1495 19.1288 15.3337 19.1822 15.5212 19.1781C15.7087 19.1739 15.8905 19.1125 16.042 19.002C16.1935 18.8916 16.3076 18.7373 16.3689 18.5601C16.4301 18.3828 16.4357 18.1911 16.3847 18.0106L14.7071 12.1403L18.8676 8.39612C19.1401 8.15031 19.24 7.7669 19.1226 7.41927Z" fill="#F3CD03"/>
</svg>
